<svg width="109" height="223" viewBox="0 0 109 223" fill="none" xmlns="http://www.w3.org/2000/svg">
<path d="M91.854 222.054H16.717C7.6476 222.054 0.365601 214.706 0.365601 205.703L0.431795 17.2974C0.431795 8.22798 7.78 0.945984 16.7832 0.945984H91.9202C100.99 0.945984 108.272 8.29418 108.272 17.2974L108.205 205.703C108.205 214.772 100.923 222.054 91.854 222.054Z" fill="#455A64"/>
<path d="M91.854 7.6322H77.29C75.304 7.6322 73.7814 9.2872 73.7814 11.3394V13.9874C73.7814 16.0396 72.1926 17.6946 70.2728 17.6946H41.873C39.887 17.6946 38.3644 16.0396 38.3644 13.9874V11.3394C38.3644 9.2872 36.7756 7.6322 34.8558 7.6322H29.7584H16.9818C10.6266 7.6322 5.52922 12.7296 5.52922 19.0848L5.46301 202.922C5.46301 209.277 10.5604 214.375 16.9156 214.375L91.9202 214.441C98.2754 214.441 103.373 209.344 103.373 202.988L103.439 19.151C103.307 12.7958 98.143 7.6322 91.854 7.6322Z" fill="#FAFAFA"/>
<path d="M78.8126 13.5902H77.952V14.7818H78.8126V13.5902Z" fill="#263238"/>
<path d="M80.2028 13.0606H79.3422V14.7156H80.2028V13.0606Z" fill="#263238"/>
<path d="M81.5269 12.6634H80.6663V14.7156H81.5269V12.6634Z" fill="#263238"/>
<path d="M82.917 11.9352H82.0565V14.7818H82.917V11.9352Z" fill="#263238"/>
<path d="M95.164 14.848H90.9934C90.861 14.848 90.6624 14.7156 90.6624 14.517V12.4648C90.6624 12.3324 90.7948 12.1338 90.9272 12.1338H95.0978H95.164V12.2V12.862H95.6274C95.6936 12.862 95.6936 12.9282 95.6936 12.9282V13.9212C95.6936 13.9874 95.6274 13.9874 95.6274 13.9874H95.164V14.6494C95.2302 14.7818 95.2302 14.848 95.164 14.848ZM95.0978 12.2662H90.9934C90.9272 12.2662 90.861 12.3324 90.861 12.3986V14.4508C90.861 14.517 90.9272 14.5832 90.9934 14.5832H95.0978V13.9212C95.0978 13.855 95.164 13.855 95.164 13.855H95.6274V12.9944H95.164C95.0978 12.9944 95.0978 12.9282 95.0978 12.9282V12.2662Z" fill="#263238"/>
<path d="M91.192 14.3184V12.6634H94.7668V13.3916V13.5902V14.3184H91.192Z" fill="#263238"/>
<path d="M86.5581 14.9804C86.7409 14.9804 86.8891 14.8322 86.8891 14.6494C86.8891 14.4666 86.7409 14.3184 86.5581 14.3184C86.3752 14.3184 86.2271 14.4666 86.2271 14.6494C86.2271 14.8322 86.3752 14.9804 86.5581 14.9804Z" fill="#263238"/>
<path d="M85.4988 13.9212L85.896 14.3184C86.0946 14.1198 86.2932 14.0536 86.558 14.0536C86.8228 14.0536 87.0214 14.186 87.22 14.3184L87.6172 13.9212C87.3524 13.6564 86.9552 13.4578 86.558 13.4578C86.1608 13.4578 85.7636 13.6564 85.4988 13.9212Z" fill="#263238"/>
<path d="M86.558 12.5972C85.896 12.5972 85.3002 12.862 84.903 13.2592L85.3002 13.6564C85.6312 13.3254 86.0946 13.1268 86.558 13.1268C87.0214 13.1268 87.4848 13.3254 87.8158 13.6564L88.213 13.2592C87.7496 12.862 87.22 12.5972 86.558 12.5972Z" fill="#263238"/>
<path d="M84.241 12.6634L84.6382 13.0606C85.1016 12.5972 85.8298 12.2662 86.558 12.2662C87.2862 12.2662 87.9482 12.5972 88.4778 13.0606L88.875 12.6634C88.2792 12.0676 87.4848 11.7366 86.558 11.7366C85.6312 11.7366 84.8368 12.0676 84.241 12.6634Z" fill="#263238"/>
<path d="M28.3682 99.5178L80.1366 99.1206L81.593 134.273L28.0372 133.809L28.3682 99.5178Z" fill="#FF4F5B"/>
<path d="M28.3682 99.5178L54.6496 78.2676L80.1366 99.1206" fill="#FF4F5B"/>
<g opacity="0.3">
<path d="M28.3682 99.5178L54.6496 78.2676L80.1366 99.1206" fill="black"/>
</g>
<path d="M37.4757 123.902C42.6524 118.381 46.8056 113.865 46.7523 113.815C46.6989 113.765 42.4592 118.2 37.2825 123.721C32.1059 129.242 27.9527 133.758 28.006 133.808C28.0594 133.858 32.2991 129.423 37.4757 123.902Z" fill="#1A2E35"/>
<path d="M81.5411 134.288C81.5957 134.239 77.6629 129.725 72.7568 124.204C67.8507 118.684 63.8292 114.248 63.7745 114.296C63.7199 114.345 67.6527 118.859 72.5588 124.38C77.4649 129.901 81.4864 134.337 81.5411 134.288Z" fill="#1A2E35"/>
<g opacity="0.5">
<path d="M80.1366 99.1206L54.12 119.907L28.3682 99.5178" fill="black"/>
</g>
<path d="M31.0162 101.438L30.95 86.4102L76.2308 85.2848L76.6942 101.702L54.12 119.576L31.0162 101.438Z" fill="#ECECEC"/>
<path d="M54.782 114.214C54.3848 114.214 53.9214 114.214 53.458 114.148C50.479 113.817 47.7648 112.294 45.9112 109.977C44.0576 107.594 43.197 104.681 43.528 101.702C44.2562 95.5458 49.817 91.0442 55.9736 91.7724C58.9526 92.1034 61.6668 93.626 63.5204 95.943C65.374 98.3262 66.2346 101.239 65.9036 104.218C65.5726 107.197 64.05 109.911 61.733 111.765C59.747 113.354 57.2976 114.214 54.782 114.214ZM54.782 92.0372C49.3536 92.0372 44.5872 96.1416 43.9914 101.702C43.6604 104.615 44.4548 107.462 46.3084 109.713C48.0958 111.963 50.6776 113.42 53.5904 113.751C56.5032 114.082 59.3498 113.287 61.6006 111.434C63.8514 109.646 65.3078 107.065 65.6388 104.152C65.9698 101.239 65.1754 98.3924 63.3218 96.1416C61.5344 93.8908 58.9526 92.4344 56.0398 92.1034C55.5764 92.0372 55.1792 92.0372 54.782 92.0372Z" fill="#FF4F5B"/>
<path d="M47.1028 104.483L48.9564 102.166L53.3918 105.343L60.5414 96.936L62.726 98.8558L53.5242 109.448L47.1028 104.483Z" fill="#FF4F5B"/>
</svg>
