<svg width="140" height="237" viewBox="0 0 140 237" fill="none" xmlns="http://www.w3.org/2000/svg">
<path d="M109.586 236.386H34.903C25.8884 236.386 18.6504 229.082 18.6504 220.133L18.7162 32.8666C18.7162 23.852 26.02 16.614 34.9688 16.614H109.652C118.666 16.614 125.904 23.9178 125.904 32.8666L125.839 220.133C125.839 229.148 118.601 236.386 109.586 236.386Z" fill="#455A64"/>
<path d="M109.586 23.2598H95.11C93.136 23.2598 91.6227 24.9048 91.6227 26.9446V29.5766C91.6227 31.6164 90.0434 33.2614 88.1352 33.2614H59.907C57.933 33.2614 56.4196 31.6164 56.4196 29.5766V26.9446C56.4196 24.9048 54.8404 23.2598 52.9322 23.2598H47.8656H35.1662C28.8494 23.2598 23.7828 28.3264 23.7828 34.6432L23.717 217.37C23.717 223.687 28.7836 228.753 35.1004 228.753L109.652 228.819C115.969 228.819 121.035 223.752 121.035 217.436L121.101 34.709C120.969 28.3922 115.837 23.2598 109.586 23.2598Z" fill="#FAFAFA"/>
<path d="M96.6233 29.1818H95.7679V30.3662H96.6233V29.1818Z" fill="#263238"/>
<path d="M98.0052 28.6553H97.1498V30.3003H98.0052V28.6553Z" fill="#263238"/>
<path d="M99.3211 28.2606H98.4657V30.3004H99.3211V28.2606Z" fill="#263238"/>
<path d="M100.703 27.5367H99.8475V30.3661H100.703V27.5367Z" fill="#263238"/>
<path d="M112.876 30.4319H108.731C108.599 30.4319 108.402 30.3003 108.402 30.1029V28.0631C108.402 27.9315 108.533 27.7341 108.665 27.7341H112.81H112.876V27.7999V28.4579H113.337C113.402 28.4579 113.402 28.5237 113.402 28.5237V29.5107C113.402 29.5765 113.337 29.5765 113.337 29.5765H112.876V30.2345C112.942 30.3661 112.942 30.4319 112.876 30.4319ZM112.81 27.8657H108.731C108.665 27.8657 108.599 27.9315 108.599 27.9973V30.0371C108.599 30.1029 108.665 30.1687 108.731 30.1687H112.81V29.5107C112.81 29.4449 112.876 29.4449 112.876 29.4449H113.337V28.5895H112.876C112.81 28.5895 112.81 28.5237 112.81 28.5237V27.8657Z" fill="#263238"/>
<path d="M108.928 29.9055V28.2605H112.481V28.9843V29.1817V29.9055H108.928Z" fill="#263238"/>
<path d="M104.322 30.5636C104.504 30.5636 104.651 30.4163 104.651 30.2346C104.651 30.0529 104.504 29.9056 104.322 29.9056C104.14 29.9056 103.993 30.0529 103.993 30.2346C103.993 30.4163 104.14 30.5636 104.322 30.5636Z" fill="#263238"/>
<path d="M103.269 29.5108L103.664 29.9056C103.861 29.7082 104.059 29.6424 104.322 29.6424C104.585 29.6424 104.783 29.774 104.98 29.9056L105.375 29.5108C105.112 29.2476 104.717 29.0502 104.322 29.0502C103.927 29.0502 103.532 29.2476 103.269 29.5108Z" fill="#263238"/>
<path d="M104.322 28.1948C103.664 28.1948 103.072 28.458 102.677 28.8528L103.072 29.2476C103.401 28.9186 103.861 28.7212 104.322 28.7212C104.782 28.7212 105.243 28.9186 105.572 29.2476L105.967 28.8528C105.506 28.458 104.98 28.1948 104.322 28.1948Z" fill="#263238"/>
<path d="M102.019 28.2606L102.414 28.6554C102.874 28.1948 103.598 27.8658 104.322 27.8658C105.046 27.8658 105.704 28.1948 106.23 28.6554L106.625 28.2606C106.033 27.6684 105.243 27.3394 104.322 27.3394C103.401 27.3394 102.611 27.6684 102.019 28.2606Z" fill="#263238"/>
<path d="M134.919 112.485H10.557C8.05664 112.485 6.01685 110.445 6.01685 107.944V74.2547C6.01685 71.7543 8.05664 69.7145 10.557 69.7145H134.985C137.485 69.7145 139.525 71.7543 139.525 74.2547V107.944C139.525 110.445 137.485 112.485 134.919 112.485Z" fill="white"/>
<path d="M134.919 112.485C134.919 112.485 135.248 112.485 135.774 112.353C136.367 112.221 137.222 111.958 138.012 111.169C138.406 110.774 138.801 110.247 139.064 109.589C139.328 108.931 139.393 108.142 139.393 107.352C139.393 105.641 139.393 103.733 139.393 101.562C139.393 97.219 139.393 91.8892 139.393 85.6382C139.393 82.5456 139.393 79.2556 139.393 75.7024C139.393 74.847 139.459 73.9258 139.262 73.0704C139.064 72.215 138.538 71.4254 137.88 70.8332C137.222 70.241 136.301 69.8462 135.38 69.7804C134.458 69.7146 133.471 69.7804 132.484 69.7804C101.295 69.7804 58.1963 69.7804 10.5571 69.8462C9.83326 69.8462 9.10946 70.0436 8.51726 70.3726C7.85926 70.7016 7.33286 71.228 6.93806 71.7544C6.54326 72.3466 6.28006 73.0046 6.21426 73.7284C6.14846 74.4522 6.21426 75.176 6.21426 75.8998C6.21426 78.8608 6.21426 81.756 6.21426 84.6512C6.21426 90.4416 6.21426 96.1662 6.21426 101.759C6.21426 103.141 6.21426 104.589 6.21426 105.97C6.21426 106.694 6.21426 107.352 6.21426 108.076C6.21426 108.734 6.41166 109.392 6.74066 109.984C7.39866 111.169 8.51726 112.024 9.83326 112.221C10.4913 112.353 11.1493 112.287 11.8073 112.287C12.4653 112.287 13.1891 112.287 13.8471 112.287C19.2427 112.287 24.5067 112.287 29.7049 112.287C50.3003 112.287 68.9217 112.287 84.5163 112.353C100.111 112.353 112.744 112.419 121.496 112.419C125.839 112.419 129.26 112.419 131.563 112.419C132.682 112.419 133.603 112.419 134.195 112.419C134.656 112.485 134.919 112.485 134.919 112.485C134.919 112.485 134.59 112.485 133.998 112.485C133.406 112.485 132.55 112.485 131.366 112.485C129.063 112.485 125.707 112.485 121.298 112.485C112.547 112.485 99.9135 112.485 84.3189 112.55C68.7243 112.55 50.1687 112.55 29.5075 112.616C24.3751 112.616 19.0453 112.616 13.6497 112.616C12.9917 112.616 12.2679 112.616 11.6099 112.616C10.9519 112.616 10.2281 112.682 9.57006 112.55C8.18826 112.287 6.93806 111.366 6.21426 110.116C5.88526 109.458 5.68787 108.8 5.68787 108.076C5.68787 107.352 5.68787 106.694 5.68787 105.97C5.68787 104.589 5.68787 103.207 5.68787 101.759C5.68787 96.1662 5.68787 90.4416 5.68787 84.6512C5.68787 81.756 5.68787 78.8608 5.68787 75.8998C5.68787 75.176 5.68787 74.4522 5.68787 73.6626C5.75367 72.873 6.01686 72.1492 6.47746 71.557C6.93806 70.899 7.53026 70.3726 8.18826 70.0436C8.84626 69.7146 9.63586 69.5172 10.4255 69.5172C57.9989 69.5172 101.098 69.583 132.353 69.583C133.34 69.583 134.261 69.583 135.248 69.583C136.235 69.6488 137.156 70.0436 137.88 70.7016C138.604 71.2938 139.13 72.1492 139.328 73.0704C139.459 73.531 139.459 73.9916 139.459 74.4522C139.459 74.9128 139.459 75.3076 139.459 75.7682C139.459 79.2556 139.459 82.6114 139.459 85.704C139.459 91.8892 139.459 97.219 139.459 101.628C139.459 103.799 139.459 105.773 139.459 107.418C139.459 108.273 139.393 109.063 139.13 109.721C138.867 110.379 138.472 110.905 138.077 111.3C137.222 112.09 136.367 112.353 135.774 112.485C135.511 112.55 135.248 112.55 135.116 112.55C134.985 112.485 134.919 112.485 134.919 112.485Z" fill="#263238"/>
<path d="M129.918 78.466C129.852 78.466 129.852 78.4659 129.787 78.4001C129.721 78.3343 129.721 78.2028 129.787 78.137L133.077 74.9785C133.142 74.9127 133.274 74.9127 133.34 74.9785C133.406 75.0443 133.406 75.176 133.34 75.2418L130.05 78.4001C129.984 78.4659 129.918 78.466 129.918 78.466Z" fill="#263238"/>
<path d="M133.142 78.466C133.077 78.466 133.077 78.4659 133.011 78.4001L129.721 75.2418C129.655 75.176 129.655 75.0443 129.721 74.9785C129.787 74.9127 129.918 74.9127 129.984 74.9785L133.274 78.137C133.34 78.2028 133.34 78.3343 133.274 78.4001C133.274 78.4659 133.208 78.466 133.142 78.466Z" fill="#263238"/>
<path d="M34.7715 99.3904L33.4555 97.4821C32.6659 96.3635 32.2053 94.9817 32.2053 93.5341V89.2571C32.2053 85.7697 29.6391 82.8745 26.2833 82.3481V80.3084C26.2833 79.782 25.8885 79.3871 25.3621 79.3871C24.8357 79.3871 24.4409 79.782 24.4409 80.3084V82.3481C20.9535 82.7429 18.2557 85.7039 18.2557 89.2571V93.6658C18.2557 95.1792 17.7293 96.6926 16.8081 97.8769L15.6237 99.3245L34.7715 99.3904Z" fill="#FF725E"/>
<path d="M24.1777 102.483C25.2305 102.944 26.4807 102.68 27.3361 101.957C27.6651 101.628 27.9941 101.233 28.1257 100.772L22.5327 100.706C22.7959 101.496 23.3881 102.154 24.1777 102.483Z" fill="#FF725E"/>
<path d="M109.849 84.1248C109.849 84.1906 94.9127 84.3222 76.4229 84.3222C57.9989 84.3222 42.9965 84.2564 42.9965 84.1248C42.9965 84.059 57.9331 83.9274 76.4229 83.9274C94.9127 83.9932 109.849 84.059 109.849 84.1248Z" fill="#263238"/>
<path d="M125.641 92.2181C125.641 92.2839 107.151 92.4155 84.3847 92.4155C61.5521 92.4155 43.1281 92.3497 43.1281 92.2181C43.1281 92.1523 61.6179 92.0208 84.3847 92.0208C107.151 92.0208 125.641 92.1523 125.641 92.2181Z" fill="#E0E0E0"/>
<path d="M125.641 97.0874C125.641 97.1532 107.151 97.2848 84.3847 97.2848C61.5521 97.2848 43.1281 97.219 43.1281 97.0874C43.1281 97.0216 61.6179 96.89 84.3847 96.89C107.151 96.89 125.641 96.9558 125.641 97.0874Z" fill="#E0E0E0"/>
<path d="M113.6 148.609H30.9551C28.4547 148.609 26.4149 146.569 26.4149 144.069V123.802C26.4149 121.302 28.4547 119.262 30.9551 119.262H113.534C116.035 119.262 118.074 121.302 118.074 123.802V144.069C118.14 146.503 116.1 148.609 113.6 148.609Z" fill="#FAFAFA"/>
<path d="M113.6 148.609C113.6 148.609 113.797 148.609 114.192 148.543C114.587 148.477 115.179 148.346 115.837 147.951C116.495 147.556 117.285 146.898 117.679 145.845C117.877 145.319 118.074 144.727 118.074 144.069C118.074 143.411 118.074 142.687 118.074 141.963C118.074 139.002 118.074 135.383 118.074 131.172C118.074 129.066 118.074 126.829 118.074 124.394C118.074 123.802 118.074 123.21 117.943 122.618C117.811 122.026 117.548 121.499 117.153 120.973C116.429 119.986 115.179 119.328 113.929 119.262C92.7413 119.262 63.3945 119.262 31.0209 119.328C30.0339 119.328 29.0469 119.657 28.3231 120.249C27.5335 120.841 27.0071 121.697 26.7439 122.618C26.6123 123.078 26.6123 123.539 26.6123 124.065V125.579C26.6123 126.566 26.6123 127.553 26.6123 128.54C26.6123 132.488 26.6123 136.37 26.6123 140.186C26.6123 141.173 26.6123 142.095 26.6123 143.016C26.6123 143.476 26.6123 143.937 26.6123 144.398C26.6781 144.858 26.7439 145.319 26.9413 145.714C27.3361 146.569 27.9283 147.227 28.6521 147.753C29.4417 148.214 30.2971 148.477 31.2183 148.411C34.9031 148.411 38.4563 148.411 42.0095 148.411C56.0249 148.411 68.6585 148.411 79.2523 148.477C89.8461 148.477 98.4659 148.543 104.388 148.543C107.349 148.543 109.652 148.543 111.231 148.543C112.021 148.543 112.613 148.543 113.008 148.543C113.402 148.543 113.6 148.609 113.6 148.609C113.6 148.609 113.402 148.609 113.008 148.609C112.613 148.609 112.021 148.609 111.231 148.609C109.652 148.609 107.349 148.609 104.388 148.609C98.4659 148.609 89.8461 148.609 79.2523 148.675C68.6585 148.675 56.0249 148.675 42.0095 148.74C38.5221 148.74 34.9031 148.74 31.2183 148.74C30.2971 148.74 29.3101 148.543 28.5205 148.017C27.7309 147.49 27.0729 146.766 26.6781 145.845C26.4807 145.385 26.3491 144.924 26.3491 144.463C26.2833 143.937 26.3491 143.476 26.3491 143.016C26.3491 142.095 26.3491 141.108 26.3491 140.186C26.3491 136.37 26.3491 132.488 26.3491 128.54C26.3491 127.553 26.3491 126.566 26.3491 125.579V124.065C26.3491 123.605 26.3491 123.013 26.4807 122.552C26.7439 121.565 27.3361 120.644 28.1915 119.986C28.9811 119.328 30.0339 118.999 31.0867 118.999C63.4603 118.999 92.7413 119.065 113.995 119.065C115.376 119.13 116.627 119.854 117.416 120.907C117.811 121.433 118.074 122.026 118.272 122.618C118.403 123.21 118.403 123.868 118.403 124.46C118.403 126.829 118.403 129.132 118.403 131.238C118.403 135.449 118.403 139.068 118.403 142.029C118.403 142.753 118.403 143.476 118.403 144.134C118.403 144.792 118.206 145.385 118.008 145.911C117.548 146.964 116.758 147.622 116.1 148.017C115.442 148.411 114.784 148.543 114.389 148.543C113.797 148.609 113.6 148.609 113.6 148.609Z" fill="#263238"/>
<path d="M111.56 125.25C111.494 125.25 111.494 125.25 111.429 125.184C111.363 125.118 111.363 124.987 111.429 124.921L113.666 122.749C113.732 122.684 113.863 122.684 113.929 122.749C113.995 122.815 113.995 122.947 113.929 123.013L111.692 125.184C111.626 125.25 111.56 125.25 111.56 125.25Z" fill="#263238"/>
<path d="M113.797 125.25C113.732 125.25 113.732 125.25 113.666 125.184L111.429 123.013C111.363 122.947 111.363 122.815 111.429 122.749C111.494 122.684 111.626 122.684 111.692 122.749L113.929 124.921C113.995 124.987 113.995 125.118 113.929 125.184C113.863 125.25 113.863 125.25 113.797 125.25Z" fill="#263238"/>
<path d="M46.1549 139.594L45.2337 138.278C44.7073 137.489 44.3783 136.567 44.3783 135.58V132.619C44.3783 130.251 42.6017 128.211 40.2987 127.882V126.5C40.2987 126.171 40.0355 125.842 39.6407 125.842C39.3117 125.842 38.9827 126.105 38.9827 126.5V127.882C36.6139 128.145 34.7715 130.185 34.7715 132.619V135.646C34.7715 136.699 34.4425 137.686 33.7845 138.541L32.9949 139.528L46.1549 139.594Z" fill="#455A64"/>
<path d="M38.9168 141.7C39.6406 142.029 40.496 141.831 41.0882 141.305C41.3514 141.108 41.5488 140.779 41.6146 140.45H37.7982C37.9298 141.042 38.3904 141.502 38.9168 141.7Z" fill="#455A64"/>
<path d="M74.8437 129.329C87.5265 129.329 97.8079 129.241 97.8079 129.132C97.8079 129.023 87.5265 128.935 74.8437 128.935C62.1609 128.935 51.8795 129.023 51.8795 129.132C51.8795 129.241 62.1609 129.329 74.8437 129.329Z" fill="#263238"/>
<path d="M108.599 134.659C108.599 134.725 95.8997 134.857 80.2393 134.857C64.5789 134.857 51.8795 134.791 51.8795 134.659C51.8795 134.593 64.5789 134.462 80.2393 134.462C95.8997 134.462 108.599 134.593 108.599 134.659Z" fill="#E0E0E0"/>
<path d="M108.599 138.015C108.599 138.081 95.8997 138.212 80.2393 138.212C64.5789 138.212 51.8795 138.147 51.8795 138.015C51.8795 137.949 64.5789 137.818 80.2393 137.818C95.8997 137.818 108.599 137.883 108.599 138.015Z" fill="#E0E0E0"/>
<path d="M113.205 182.364H31.2841C28.7837 182.364 26.7439 180.324 26.7439 177.824V157.755C26.7439 155.255 28.7837 153.215 31.2841 153.215H113.205C115.705 153.215 117.745 155.255 117.745 157.755V177.824C117.811 180.324 115.771 182.364 113.205 182.364Z" fill="#FAFAFA"/>
<path d="M113.205 182.364C113.205 182.364 113.402 182.364 113.797 182.298C114.192 182.233 114.784 182.101 115.442 181.706C116.1 181.311 116.824 180.653 117.285 179.601C117.482 179.074 117.679 178.482 117.679 177.824C117.679 177.166 117.679 176.508 117.679 175.718C117.679 172.757 117.679 169.204 117.679 164.993C117.679 162.887 117.679 160.65 117.679 158.281C117.679 157.689 117.679 157.097 117.548 156.505C117.416 155.913 117.153 155.386 116.758 154.926C116.034 153.939 114.85 153.281 113.534 153.215C92.4781 153.215 63.3945 153.215 31.2841 153.281C29.3101 153.281 27.4677 154.662 27.0071 156.571C26.8755 157.031 26.8755 157.492 26.8755 158.018V159.466C26.8755 160.453 26.8755 161.44 26.8755 162.427C26.8755 166.309 26.8755 170.191 26.8755 174.008C26.8755 174.929 26.8755 175.916 26.8755 176.837C26.8755 177.298 26.8755 177.758 26.8755 178.219C26.9413 178.679 27.0071 179.074 27.2045 179.535C27.5335 180.324 28.1915 181.048 28.9153 181.509C29.6391 181.969 30.5603 182.233 31.4157 182.167C35.0347 182.167 38.6537 182.167 42.0753 182.167C55.9591 182.167 68.5269 182.167 79.0549 182.233C89.5829 182.233 98.0711 182.298 103.993 182.298C106.954 182.298 109.191 182.298 110.77 182.298C111.56 182.298 112.152 182.298 112.547 182.298C113.008 182.364 113.205 182.364 113.205 182.364C113.205 182.364 113.008 182.364 112.613 182.364C112.218 182.364 111.626 182.364 110.836 182.364C109.257 182.364 107.02 182.364 104.059 182.364C98.1369 182.364 89.6487 182.364 79.1207 182.43C68.5927 182.43 56.0907 182.43 42.1411 182.496C38.6537 182.496 35.1005 182.496 31.4815 182.496C30.5603 182.496 29.5733 182.298 28.7837 181.772C27.9941 181.246 27.3361 180.522 26.9413 179.601C26.7439 179.14 26.6123 178.679 26.6123 178.219C26.5465 177.758 26.6123 177.298 26.6123 176.771C26.6123 175.85 26.6123 174.863 26.6123 173.942C26.6123 170.125 26.6123 166.309 26.6123 162.361C26.6123 161.374 26.6123 160.387 26.6123 159.4V157.952C26.6123 157.492 26.6123 156.9 26.8097 156.439C27.3361 154.399 29.3101 152.886 31.4157 152.952C63.5261 152.952 92.6097 153.017 113.666 153.017C115.047 153.083 116.298 153.807 117.021 154.86C117.416 155.386 117.679 155.978 117.811 156.571C117.943 157.163 117.943 157.821 117.943 158.413C117.943 160.782 117.943 163.019 117.943 165.125C117.943 169.336 117.943 172.889 117.943 175.85C117.943 176.574 117.943 177.298 117.943 177.956C117.943 178.614 117.745 179.206 117.548 179.732C117.087 180.785 116.298 181.443 115.64 181.838C114.982 182.233 114.389 182.364 113.995 182.364C113.402 182.364 113.205 182.364 113.205 182.364Z" fill="#263238"/>
<path d="M111.231 159.203C111.165 159.203 111.165 159.203 111.099 159.137C111.034 159.071 111.034 158.939 111.099 158.874L113.337 156.702C113.402 156.636 113.534 156.636 113.6 156.702C113.666 156.768 113.666 156.9 113.6 156.965L111.363 159.137C111.297 159.203 111.297 159.203 111.231 159.203Z" fill="#263238"/>
<path d="M113.468 159.203C113.402 159.203 113.402 159.203 113.337 159.137L111.099 156.965C111.034 156.9 111.034 156.768 111.099 156.702C111.165 156.636 111.297 156.636 111.363 156.702L113.6 158.874C113.666 158.939 113.666 159.071 113.6 159.137C113.534 159.203 113.534 159.203 113.468 159.203Z" fill="#263238"/>
<path d="M46.3523 173.415L45.4311 172.099C44.9047 171.31 44.5757 170.389 44.5757 169.402V166.506C44.5757 164.138 42.7991 162.164 40.5619 161.835V160.453C40.5619 160.124 40.2987 159.795 39.9039 159.795C39.5749 159.795 39.2459 160.058 39.2459 160.453V161.835C36.8771 162.098 35.0347 164.138 35.0347 166.572V169.599C35.0347 170.652 34.7057 171.639 34.0477 172.428L33.2581 173.415H46.3523Z" fill="#E0E0E0"/>
<path d="M39.18 175.521C39.9038 175.784 40.7592 175.653 41.2856 175.126C41.5488 174.929 41.7462 174.6 41.812 174.271H37.9956C38.193 174.863 38.6536 175.324 39.18 175.521Z" fill="#E0E0E0"/>
<path d="M74.8437 163.216C87.4175 163.216 97.6105 163.128 97.6105 163.019C97.6105 162.91 87.4175 162.822 74.8437 162.822C62.27 162.822 52.0769 162.91 52.0769 163.019C52.0769 163.128 62.27 163.216 74.8437 163.216Z" fill="#263238"/>
<path d="M108.336 168.546C108.336 168.612 95.7023 168.744 80.1735 168.744C64.6447 168.744 52.0111 168.678 52.0111 168.546C52.0111 168.48 64.6447 168.349 80.1735 168.349C95.7023 168.349 108.336 168.415 108.336 168.546Z" fill="#E0E0E0"/>
<path d="M108.336 171.836C108.336 171.902 95.7023 172.034 80.1735 172.034C64.6447 172.034 52.0111 171.968 52.0111 171.836C52.0111 171.77 64.6447 171.639 80.1735 171.639C95.7023 171.639 108.336 171.77 108.336 171.836Z" fill="#E0E0E0"/>
<path d="M36.3506 28.2606H17.2028V16.285C17.2028 11.021 21.4798 6.67822 26.8096 6.67822C32.0736 6.67822 36.4164 10.9552 36.4164 16.285V28.2606H36.3506Z" fill="#A32430"/>
<path d="M37.0086 28.9186H16.479V16.285C16.479 13.5214 17.5318 10.9552 19.5058 9.047C21.414 7.1388 24.046 6.0202 26.7438 6.0202C29.5074 6.0202 32.0736 7.073 33.9818 9.047C35.89 10.9552 37.0086 13.5872 37.0086 16.285V28.9186ZM17.8608 27.5368H35.6268V16.285C35.6268 13.9162 34.7056 11.679 32.9948 9.9682C31.284 8.2574 29.1126 7.3362 26.678 7.3362C24.3092 7.3362 22.072 8.2574 20.3612 9.9682C18.6504 11.679 17.7292 13.8504 17.7292 16.285V27.5368H17.8608Z" fill="white"/>
<path d="M27.994 9.24438C27.336 9.24438 26.678 9.37598 26.0858 9.50758C28.7178 10.2972 30.5602 12.7318 30.5602 15.627V26.0892H34.4424V15.6928C34.3766 12.1396 31.5472 9.24438 27.994 9.24438Z" fill="#F1F1F2"/>
<path d="M42.0094 9.83657C41.7462 9.83657 41.483 9.70497 41.2856 9.50757C40.8908 9.11277 40.8908 8.45478 41.2856 8.05998L48.392 0.887775C48.7868 0.492975 49.4448 0.492975 49.8396 0.887775C50.2344 1.28257 50.2344 1.94058 49.8396 2.33538L42.6674 9.50757C42.5358 9.70497 42.2726 9.83657 42.0094 9.83657Z" fill="#A32430"/>
<path d="M49.1158 32.3402C48.8526 32.3402 48.5894 32.2086 48.392 32.0112L41.2198 24.839C40.825 24.4442 40.825 23.7862 41.2198 23.3914C41.6146 22.9966 42.2726 22.9966 42.6674 23.3914L49.8396 30.5636C50.2344 30.9584 50.2344 31.6164 49.8396 32.0112C49.708 32.2744 49.379 32.3402 49.1158 32.3402Z" fill="#A32430"/>
<path d="M52.0769 17.5352H42.0095C41.4173 17.5352 40.9567 17.0746 40.9567 16.4824C40.9567 15.8902 41.4173 15.4296 42.0095 15.4296H52.0769C52.6691 15.4296 53.1297 15.8902 53.1297 16.4824C53.1297 17.0746 52.6691 17.5352 52.0769 17.5352Z" fill="#A32430"/>
<path d="M11.4782 9.83657C11.215 9.83657 10.9518 9.70497 10.7544 9.50757L3.58223 2.33538C3.18743 1.94058 3.18743 1.28257 3.58223 0.887775C3.97703 0.492975 4.63504 0.492975 5.02984 0.887775L12.202 8.05998C12.5968 8.45478 12.5968 9.11277 12.202 9.50757C12.0046 9.70497 11.7414 9.83657 11.4782 9.83657Z" fill="#A32430"/>
<path d="M4.30604 32.3402C4.04284 32.3402 3.77963 32.2086 3.58223 32.0112C3.18743 31.6164 3.18743 30.9584 3.58223 30.5636L10.7544 23.3914C11.1492 22.9966 11.8072 22.9966 12.202 23.3914C12.5968 23.7862 12.5968 24.4442 12.202 24.839L5.02984 32.0112C4.89824 32.2744 4.63504 32.3402 4.30604 32.3402Z" fill="#A32430"/>
<path d="M11.4782 17.5352H1.41084C0.818636 17.5352 0.358032 17.0746 0.358032 16.4824C0.358032 15.8902 0.818636 15.4296 1.41084 15.4296H11.4782C12.0704 15.4296 12.531 15.8902 12.531 16.4824C12.531 17.0746 12.0704 17.5352 11.4782 17.5352Z" fill="#A32430"/>
</svg>
