<svg width="155" height="220" viewBox="0 0 155 220" fill="none" xmlns="http://www.w3.org/2000/svg">
<path d="M137.952 219.552H63.4959C54.5087 219.552 47.2927 212.27 47.2927 203.349L47.3583 16.6512C47.3583 7.664 54.6399 0.447998 63.5615 0.447998H138.018C147.005 0.447998 154.221 7.7296 154.221 16.6512L154.155 203.349C154.155 212.336 146.939 219.552 137.952 219.552Z" fill="#455A64"/>
<path d="M137.952 7.07361H123.52C121.552 7.07361 120.043 8.71361 120.043 10.7472V13.3712C120.043 15.4048 118.469 17.0448 116.566 17.0448H88.4239C86.4559 17.0448 84.9471 15.4048 84.9471 13.3712V10.7472C84.9471 8.71361 83.3727 7.07361 81.4703 7.07361H76.4191H63.7583C57.4607 7.07361 52.4095 12.1248 52.4095 18.4224L52.3439 200.594C52.3439 206.891 57.3951 211.942 63.6927 211.942L138.017 212.008C144.315 212.008 149.366 206.957 149.366 200.659L149.432 18.488C149.301 12.1904 144.184 7.07361 137.952 7.07361Z" fill="#FAFAFA"/>
<path d="M125.029 12.9776H124.176V14.1584H125.029V12.9776Z" fill="#263238"/>
<path d="M126.406 12.4528H125.553V14.0928H126.406V12.4528Z" fill="#263238"/>
<path d="M127.718 12.0592H126.865V14.0928H127.718V12.0592Z" fill="#263238"/>
<path d="M129.096 11.3376H128.243V14.1584H129.096V11.3376Z" fill="#263238"/>
<path d="M141.232 14.224H137.099C136.968 14.224 136.771 14.0928 136.771 13.896V11.8624C136.771 11.7312 136.902 11.5344 137.034 11.5344H141.166H141.232V11.6V12.256H141.691C141.757 12.256 141.757 12.3216 141.757 12.3216V13.3056C141.757 13.3712 141.691 13.3712 141.691 13.3712H141.232V14.0272C141.298 14.1584 141.298 14.224 141.232 14.224ZM141.166 11.6656H137.099C137.034 11.6656 136.968 11.7312 136.968 11.7968V13.8304C136.968 13.896 137.034 13.9616 137.099 13.9616H141.166V13.3056C141.166 13.24 141.232 13.24 141.232 13.24H141.691V12.3872H141.232C141.166 12.3872 141.166 12.3216 141.166 12.3216V11.6656Z" fill="#263238"/>
<path d="M137.296 13.6992V12.0592H140.838V12.7808V12.9776V13.6992H137.296Z" fill="#263238"/>
<path d="M132.704 14.3552C132.885 14.3552 133.032 14.2084 133.032 14.0272C133.032 13.8461 132.885 13.6992 132.704 13.6992C132.523 13.6992 132.376 13.8461 132.376 14.0272C132.376 14.2084 132.523 14.3552 132.704 14.3552Z" fill="#263238"/>
<path d="M131.654 13.3056L132.048 13.6992C132.245 13.5024 132.442 13.4368 132.704 13.4368C132.966 13.4368 133.163 13.568 133.36 13.6992L133.754 13.3056C133.491 13.0432 133.098 12.8464 132.704 12.8464C132.31 12.8464 131.917 13.0432 131.654 13.3056Z" fill="#263238"/>
<path d="M132.704 11.9936C132.048 11.9936 131.458 12.256 131.064 12.6496L131.458 13.0432C131.786 12.7152 132.245 12.5184 132.704 12.5184C133.163 12.5184 133.622 12.7152 133.95 13.0432L134.344 12.6496C133.885 12.256 133.36 11.9936 132.704 11.9936Z" fill="#263238"/>
<path d="M130.408 12.0592L130.802 12.4528C131.261 11.9936 131.982 11.6656 132.704 11.6656C133.426 11.6656 134.082 11.9936 134.606 12.4528L135 12.0592C134.41 11.4688 133.622 11.1408 132.704 11.1408C131.786 11.1408 130.998 11.4688 130.408 12.0592Z" fill="#263238"/>
<path d="M36.2064 136.634C36.2064 146.67 17.904 174.747 17.904 174.747L2.81597 145.752C1.11037 142.997 0.257568 139.979 0.257568 136.568C0.257568 126.794 8.19517 118.856 18.1008 118.856C28.2032 118.922 36.2064 126.859 36.2064 136.634ZM26.4976 136.634C26.4976 132.173 22.824 128.302 18.1008 128.302C13.5744 128.302 9.70397 131.91 9.70397 136.634C9.70397 141.094 13.3776 144.965 18.1008 144.965C22.824 144.965 26.4976 141.094 26.4976 136.634Z" fill="#C74D44"/>
<path d="M124.176 69.984C124.176 80.0208 105.874 108.098 105.874 108.098L91.048 79.1024C89.3424 76.3472 88.4896 73.3296 88.4896 69.9184C88.4896 60.144 96.4272 52.2064 106.333 52.2064C116.042 52.272 123.979 60.3408 124.176 69.984ZM114.533 69.984C114.533 65.5232 110.859 61.6528 106.136 61.6528C101.61 61.6528 97.7392 65.2608 97.7392 69.984C97.7392 74.4448 101.413 78.3152 106.136 78.3152C110.859 78.2496 114.533 74.6416 114.533 69.984Z" fill="#D37179"/>
<path d="M19.216 177.568C17.904 177.568 16.6576 176.518 16.6576 175.206C16.4608 173.698 17.5104 172.451 19.0192 172.254C36.8624 170.155 85.7344 162.021 95.3776 151.787C97.3456 149.885 97.0832 148.179 96.8864 147.326C95.8368 142.669 87.1776 136.437 73.664 131.123C67.8256 128.762 64.8736 122.792 66.5792 117.085C68.5472 110.459 75.8288 106.458 88.5552 105.605C97.1488 104.949 105.349 105.802 105.546 105.802C107.054 105.998 108.104 107.31 107.907 108.754C107.71 110.262 106.398 111.312 104.89 111.115C97.1488 110.262 74.32 109.606 71.7616 118.594C70.9088 121.546 72.6144 124.957 75.632 126.269C86.5872 130.73 100.166 137.749 102.069 146.277C102.528 148.638 102.528 152.05 99.0512 155.658C93.4752 161.627 78.3872 167.138 53.8528 172.058C36.0096 175.666 19.4128 177.83 19.216 177.83C19.4128 177.568 19.216 177.568 19.216 177.568Z" fill="#5B5A58"/>
</svg>
