<svg width="284" height="84" viewBox="0 0 284 84" fill="none" xmlns="http://www.w3.org/2000/svg">
<path d="M272.593 83.8961H10.4843C4.71802 83.8961 0 79.177 0 73.4092V10.4871C0 4.71915 4.71793 0 10.4843 0H272.592C278.359 0 283.077 4.71915 283.077 10.4871V73.4091C283.077 79.177 278.359 83.8961 272.593 83.8961Z" fill="#444444"/>
<path d="M116.237 25.488C116.237 26.9431 115.806 28.1018 114.944 28.9661C113.964 29.9939 112.686 30.5082 111.116 30.5082C109.613 30.5082 108.334 29.9872 107.283 28.9437C106.23 27.901 105.704 26.608 105.704 25.0653C105.704 23.5219 106.23 22.2297 107.283 21.1861C108.334 20.1435 109.613 19.6217 111.116 19.6217C111.862 19.6217 112.577 19.7677 113.255 20.0587C113.933 20.3505 114.477 20.7378 114.884 21.2228L113.968 22.1393C113.279 21.315 112.329 20.9032 111.116 20.9032C110.02 20.9032 109.071 21.2887 108.271 22.06C107.471 22.8321 107.071 23.8333 107.071 25.0653C107.071 26.2973 107.471 27.2985 108.271 28.0707C109.071 28.842 110.02 29.2273 111.116 29.2273C112.28 29.2273 113.249 28.8399 114.026 28.0639C114.53 27.5584 114.821 26.8557 114.899 25.9533H111.116V24.7016H116.164C116.213 24.9738 116.237 25.235 116.237 25.488" fill="white"/>
<path d="M116.237 25.488H116.063C116.062 26.9099 115.647 28.0142 114.821 28.8433L114.819 28.8447L114.818 28.8461C113.869 29.8385 112.65 30.3324 111.116 30.3345C109.653 30.3324 108.428 29.8331 107.405 28.8209C106.384 27.8067 105.88 26.5685 105.878 25.0653C105.88 23.5613 106.384 22.3238 107.405 21.3103C108.428 20.2974 109.653 19.7974 111.116 19.7953C111.84 19.7953 112.529 19.9366 113.186 20.2181C113.844 20.5017 114.364 20.8734 114.751 21.3348L114.884 21.2227L114.761 21.1L113.846 22.0171L113.968 22.1392L114.102 22.0281C113.38 21.163 112.367 20.727 111.116 20.7295C109.979 20.7281 108.979 21.1346 108.151 21.9352C107.316 22.7384 106.896 23.796 106.897 25.0653C106.896 26.3346 107.316 27.3921 108.151 28.1954C108.979 28.996 109.979 29.4024 111.116 29.401C112.318 29.4031 113.342 28.9953 114.149 28.1866C114.687 27.6465 114.992 26.8984 115.073 25.9682L115.089 25.7796H111.29V24.8753H116.164V24.7016L115.993 24.7321C116.041 24.9955 116.063 25.2457 116.063 25.488H116.411C116.411 25.224 116.386 24.9527 116.335 24.6705L116.31 24.5279H110.943V26.1269H114.899V25.9533L114.727 25.9383C114.65 26.8122 114.372 27.4703 113.903 27.9412C113.157 28.6846 112.242 29.0515 111.116 29.0536C110.06 29.0522 109.164 28.6886 108.392 27.9458C107.627 27.2056 107.246 26.2606 107.244 25.0653C107.246 23.8699 107.627 22.9249 108.392 22.1847C109.164 21.4419 110.06 21.0783 111.116 21.0769C112.29 21.0797 113.177 21.4677 113.836 22.2512L113.958 22.3964L115.007 21.3456L115.119 21.2331L115.017 21.1114C114.59 20.6028 114.022 20.199 113.323 19.8993C112.623 19.5986 111.885 19.448 111.116 19.448C109.573 19.4467 108.241 19.9894 107.16 21.0634C106.076 22.1353 105.529 23.4826 105.531 25.0653C105.529 26.6472 106.076 27.9953 107.161 29.0678C108.241 30.1411 109.573 30.6832 111.116 30.6818C112.724 30.6832 114.057 30.1492 115.069 29.0861L114.944 28.9661L115.066 29.0889C115.966 28.19 116.412 26.9757 116.411 25.488H116.237ZM124.24 21.1353H119.496V24.4392H123.774V25.6913H119.496V28.9953H124.24V30.2754H118.158V19.8551H124.24V21.1353Z" fill="white"/>
<path d="M124.24 21.1352V20.9615H119.322V24.6128H123.601V25.5171L119.322 25.5176V29.1689H124.066V30.1017H118.332V20.0287H124.066V21.1352H124.24H124.414V19.6814H117.985V30.449H124.414V28.8215H119.669V25.8649H123.948V24.2655H119.669V21.3089H124.414V21.1352H124.24ZM129.885 30.2754H128.546V21.1351H125.636V19.855H132.795V21.1351H129.885V30.2753" fill="white"/>
<path d="M129.885 30.2754V30.1017H128.719V20.9615H125.809V20.0288H132.621V20.9615H129.711V30.2753H129.885H130.059V21.3089H132.968V19.6814H125.462V21.3088H128.372V30.4489H130.059V30.2753H129.885M137.974 30.2754V19.855H139.312V30.2753H137.974" fill="white"/>
<path d="M137.974 30.2754H138.148V20.0287H139.139V30.1017H137.974V30.2753V30.449H139.486V19.6814H137.801V30.449H137.974V30.2753M145.25 30.2754H143.911V21.1351H141.001V19.855H148.16V21.1351H145.25V30.2753" fill="white"/>
<path d="M145.25 30.2755V30.1018H144.084V20.9616H141.175V20.0289H147.986V20.9616H145.077V30.2754H145.25H145.424V21.309H148.334V19.6815H140.828V21.3089H143.737V30.449H145.424V30.2753H145.25M155.062 28.0565C155.833 28.8372 156.776 29.2273 157.892 29.2273C159.008 29.2273 159.952 28.8372 160.721 28.0565C161.493 27.2756 161.88 26.2775 161.88 25.0653C161.88 23.8531 161.493 22.855 160.721 22.0742C159.952 21.2933 159.008 20.9032 157.892 20.9032C156.776 20.9032 155.833 21.2933 155.062 22.0742C154.292 22.855 153.905 23.8531 153.905 25.0653C153.905 26.2775 154.292 27.2756 155.062 28.0565ZM161.712 28.9288C160.687 29.9823 159.414 30.5082 157.892 30.5082C156.369 30.5082 155.095 29.9823 154.073 28.9288C153.049 27.8765 152.539 26.5884 152.539 25.0653C152.539 23.5422 153.049 22.2539 154.073 21.2018C155.095 20.1481 156.369 19.6217 157.892 19.6217C159.406 19.6217 160.676 20.1509 161.705 21.2086C162.732 22.2662 163.247 23.5517 163.247 25.0653C163.247 26.5884 162.734 27.8765 161.712 28.9288Z" fill="white"/>
<path d="M155.062 28.0564L154.938 28.1785C155.738 28.9906 156.736 29.4031 157.892 29.401C159.048 29.4031 160.047 28.9906 160.845 28.1785C161.65 27.3657 162.055 26.3142 162.054 25.0653C162.055 23.8164 161.65 22.7648 160.845 21.952C160.047 21.1399 159.048 20.7275 157.892 20.7295C156.736 20.7275 155.738 21.1399 154.938 21.952C154.135 22.7648 153.73 23.8164 153.732 25.0653C153.73 26.3141 154.135 27.3657 154.938 28.1785L155.062 28.0564L155.185 27.9343C154.449 27.1846 154.08 26.2416 154.079 25.0653C154.08 23.889 154.449 22.946 155.185 22.1962C155.928 21.4467 156.816 21.079 157.892 21.0769C158.967 21.079 159.857 21.4467 160.598 22.1962C161.336 22.946 161.704 23.889 161.706 25.0653C161.704 26.2415 161.336 27.1846 160.598 27.9343C159.857 28.6839 158.967 29.0515 157.892 29.0536C156.816 29.0515 155.928 28.6839 155.185 27.9343L155.062 28.0564ZM161.712 28.9288L161.588 28.8081C160.592 29.8284 159.375 30.3324 157.892 30.3345C156.409 30.3324 155.191 29.8284 154.197 28.8081C153.204 27.7843 152.714 26.5497 152.712 25.0653C152.714 23.5809 153.204 22.3462 154.197 21.3225C155.191 20.3021 156.409 19.7974 157.892 19.7954C159.365 19.7974 160.58 20.3042 161.581 21.3299C162.578 22.3584 163.071 23.5911 163.073 25.0653C163.071 26.5497 162.579 27.7843 161.588 28.8081L161.712 28.9288L161.837 29.0494C162.889 27.9682 163.421 26.6269 163.42 25.0653C163.421 23.5125 162.887 22.174 161.83 21.0879C160.772 19.9975 159.446 19.4461 157.892 19.448C156.329 19.4461 155 19.9949 153.949 21.0811V21.0803C152.894 22.1623 152.364 23.5036 152.365 25.0653C152.364 26.6269 152.894 27.9682 153.949 29.0501L153.953 29.055L153.949 29.0494C155 30.1356 156.329 30.6832 157.892 30.6818C159.454 30.6832 160.783 30.1356 161.837 29.0494L161.712 28.9288ZM165.125 30.2755V19.855H166.754L171.817 27.9613H171.875L171.817 25.9532V19.855H173.157V30.2753H171.76L166.463 21.7762H166.405L166.463 23.785V30.2753H165.125" fill="white"/>
<path d="M165.125 30.2754H165.299V20.0287H166.658L171.721 28.135H172.053L171.991 25.9506V20.0288H172.983V30.1017H171.856L166.559 21.6026H166.227L166.289 23.7879V30.1017H165.125L165.125 30.2754L165.125 30.449H166.636V23.7823L166.579 21.7716L166.405 21.7762V21.9499H166.463V21.7762L166.315 21.8686L171.663 30.449H173.33V19.6814H171.644V25.9552L171.701 27.966L171.875 27.9613V27.7877H171.817V27.9613L171.965 27.8691L166.85 19.6814H164.952V30.449H165.125L165.125 30.2754ZM219.576 59.7995H222.815V38.0885H219.576L219.576 59.7995ZM248.757 45.9093L245.043 55.3221H244.932L241.078 45.9092H237.588L243.368 59.0654L240.072 66.3834H243.453L252.36 45.9092L248.757 45.9093ZM230.384 57.3336C229.321 57.3336 227.842 56.803 227.842 55.4897C227.842 53.8139 229.686 53.1715 231.276 53.1715C232.702 53.1715 233.37 53.4787 234.237 53.8982C233.985 55.9089 232.254 57.3336 230.384 57.3336ZM230.775 45.4343C228.429 45.4343 226 46.4681 224.995 48.7585L227.87 49.9593C228.484 48.7585 229.629 48.367 230.83 48.367C232.506 48.367 234.209 49.3731 234.237 51.1607V51.384C233.65 51.0487 232.394 50.5461 230.858 50.5461C227.759 50.5461 224.602 52.2495 224.602 55.4339C224.602 58.339 227.144 60.2106 229.992 60.2106C232.171 60.2106 233.37 59.233 234.126 58.088H234.237V59.7636H237.364V51.4395C237.364 47.5856 234.488 45.4343 230.775 45.4343ZM210.752 48.5522H206.144V41.1102H210.752C213.174 41.1102 214.549 43.1162 214.549 44.8311C214.549 46.5136 213.174 48.5522 210.752 48.5522ZM210.669 38.0885H202.906V59.7995H206.144V51.5739H210.669C214.259 51.5739 217.789 48.9735 217.789 44.8311C217.789 40.6889 214.259 38.0885 210.669 38.0885ZM168.337 57.3376C166.098 57.3376 164.224 55.4631 164.224 52.8886C164.224 50.287 166.098 48.384 168.337 48.384C170.546 48.384 172.281 50.287 172.281 52.8886C172.281 55.4631 170.546 57.3376 168.337 57.3376ZM172.057 47.125H171.945C171.218 46.2578 169.818 45.4744 168.057 45.4744C164.364 45.4744 160.98 48.7198 160.98 52.8886C160.98 57.0296 164.364 60.2473 168.057 60.2473C169.818 60.2473 171.218 59.4636 171.945 58.5688H172.057V59.6319C172.057 62.4582 170.546 63.969 168.113 63.969C166.127 63.969 164.896 62.5416 164.392 61.3387L161.567 62.5138C162.378 64.4723 164.532 66.8787 168.113 66.8787C171.917 66.8787 175.134 64.6399 175.134 59.1842V45.9221H172.057V47.125ZM177.371 59.7995H180.616V38.0877H177.371V59.7995ZM185.399 52.6369C185.315 49.7828 187.609 48.3283 189.259 48.3283C190.547 48.3283 191.637 48.9715 192 49.8956L185.399 52.6369ZM195.469 50.1749C194.855 48.5237 192.979 45.4744 189.147 45.4744C185.343 45.4744 182.183 48.4681 182.183 52.8608C182.183 57.0019 185.315 60.2473 189.511 60.2473C192.896 60.2473 194.855 58.1767 195.665 56.9738L193.148 55.2948C192.309 56.5261 191.162 57.3376 189.511 57.3376C187.861 57.3376 186.686 56.5819 185.93 55.0994L195.804 51.0142L195.469 50.1749ZM116.802 47.7408V50.8744H124.298C124.075 52.6369 123.487 53.9239 122.592 54.8193C121.501 55.9108 119.795 57.1137 116.802 57.1137C112.186 57.1137 108.578 53.3926 108.578 48.776C108.578 44.1596 112.186 40.4379 116.802 40.4379C119.292 40.4379 121.109 41.4174 122.452 42.6765L124.662 40.4664C122.788 38.6753 120.298 37.3044 116.802 37.3044C110.48 37.3044 105.166 42.4527 105.166 48.776C105.166 55.0994 110.48 60.2473 116.802 60.2473C120.215 60.2473 122.788 59.1286 124.802 57.0296C126.872 54.9591 127.515 52.0494 127.515 49.6995C127.515 48.9715 127.46 48.3005 127.347 47.7408H116.802ZM136.038 57.3376C133.8 57.3376 131.87 55.4908 131.87 52.8608C131.87 50.2027 133.8 48.384 136.038 48.384C138.275 48.384 140.206 50.2027 140.206 52.8608C140.206 55.4909 138.275 57.3376 136.038 57.3376ZM136.038 45.4744C131.954 45.4744 128.625 48.58 128.625 52.8608C128.625 57.1137 131.954 60.2473 136.038 60.2473C140.122 60.2473 143.45 57.1137 143.45 52.8608C143.45 48.58 140.122 45.4744 136.038 45.4744ZM152.208 57.3376C149.971 57.3376 148.04 55.4908 148.04 52.8608C148.04 50.2027 149.971 48.384 152.208 48.384C154.446 48.384 156.376 50.2027 156.376 52.8608C156.376 55.4909 154.446 57.3376 152.208 57.3376ZM152.208 45.4744C148.124 45.4744 144.796 48.58 144.796 52.8608C144.796 57.1137 148.124 60.2473 152.208 60.2473C156.292 60.2473 159.621 57.1137 159.621 52.8608C159.621 48.58 156.292 45.4744 152.208 45.4744Z" fill="white"/>
<path d="M32.0183 68.2873L31.6725 68.6333L31.319 68.2951L31.1632 68.146L31.1541 68.1373L31.1455 68.1281C30.4768 67.4205 30.0977 66.3908 30.0448 65.1433H30.0385V64.8377V19.0643V18.7579H30.0448C30.1023 17.4003 30.5448 16.2988 31.3272 15.5928L31.6799 15.2745L32.0158 15.6105L57.9956 41.5963L58.349 41.9498L57.9956 42.3033L32.0183 68.2873Z" fill="white" stroke="black"/>
<mask id="path-11-outside-1_508_403" maskUnits="userSpaceOnUse" x="55.642" y="31.6145" width="25" height="20" fill="black">
<rect fill="white" x="55.642" y="31.6145" width="25" height="20"/>
<path d="M66.3031 50.6145L57.642 41.9497L66.3023 33.2864L76.7579 39.2279C78.0856 39.9826 78.831 40.9551 78.9556 41.9489V41.9528C78.831 42.9443 78.0856 43.9177 76.7579 44.6721L66.3032 50.6144"/>
</mask>
<path d="M66.3031 50.6145L57.642 41.9497L66.3023 33.2864L76.7579 39.2279C78.0856 39.9826 78.831 40.9551 78.9556 41.9489V41.9528C78.831 42.9443 78.0856 43.9177 76.7579 44.6721L66.3032 50.6144" fill="white"/>
<path d="M57.642 41.9497L56.9347 42.6567L56.228 41.9497L56.9347 41.2427L57.642 41.9497ZM66.3023 33.2864L65.5951 32.5794L66.1338 32.0404L66.7964 32.4169L66.3023 33.2864ZM76.7579 39.2279L77.2519 38.3585L77.252 38.3585L76.7579 39.2279ZM78.9556 41.9489L79.9478 41.8245L79.9556 41.8864V41.9489H78.9556ZM78.9556 41.9528H79.9556V42.0154L79.9477 42.0775L78.9556 41.9528ZM76.7579 44.6721L76.2637 43.8027L76.2638 43.8027L76.7579 44.6721ZM65.5958 51.3215L56.9347 42.6567L58.3492 41.2428L67.0103 49.9075L65.5958 51.3215ZM56.9347 41.2427L65.5951 32.5794L67.0095 33.9933L58.3492 42.6567L56.9347 41.2427ZM66.7964 32.4169L77.2519 38.3585L76.2638 40.0973L65.8082 34.1558L66.7964 32.4169ZM77.252 38.3585C78.7368 39.2025 79.7698 40.4046 79.9478 41.8245L77.9633 42.0733C77.8921 41.5056 77.4343 40.7626 76.2637 40.0973L77.252 38.3585ZM79.9556 41.9489V41.9528H77.9556V41.9489H79.9556ZM79.9477 42.0775C79.7696 43.4948 78.7368 44.6978 77.2519 45.5416L76.2638 43.8027C77.4343 43.1376 77.8923 42.3937 77.9634 41.8281L79.9477 42.0775ZM77.252 45.5415L66.7973 51.4838L65.809 49.745L76.2637 43.8027L77.252 45.5415Z" fill="black" mask="url(#path-11-outside-1_508_403)"/>
<path d="M31.3298 68.3056L31.1648 68.1567V67.9344V67.9338V67.7267L31.3112 67.5802L57.2884 41.5962L57.6421 41.2425L57.9957 41.5962L66.6567 50.261L67.1206 50.725L66.5502 51.0492L36.1136 68.3471L36.1133 68.3474C35.2147 68.8571 34.3324 69.1162 33.5177 69.1162C32.6775 69.1169 31.9221 68.8402 31.3298 68.3056Z" fill="white" stroke="black"/>
<mask id="path-14-outside-2_508_403" maskUnits="userSpaceOnUse" x="29.6621" y="13.9498" width="39" height="29" fill="black">
<rect fill="white" x="29.6621" y="13.9498" width="39" height="29"/>
<path d="M57.642 41.9498L31.6621 15.9641C32.156 15.5191 32.7884 15.2832 33.5132 15.2832C34.2242 15.2832 35.0228 15.5101 35.8665 15.9886L66.3022 33.2865L57.6419 41.9498"/>
</mask>
<path d="M57.642 41.9498L31.6621 15.9641C32.156 15.5191 32.7884 15.2832 33.5132 15.2832C34.2242 15.2832 35.0228 15.5101 35.8665 15.9886L66.3022 33.2865L57.6419 41.9498" fill="white"/>
<path d="M31.6621 15.9641L30.9549 16.6711L30.2102 15.9262L30.9928 15.2211L31.6621 15.9641ZM35.8665 15.9886L36.3598 15.1187L36.3607 15.1192L35.8665 15.9886ZM66.3022 33.2865L66.7963 32.4171L67.9371 33.0654L67.0095 33.9934L66.3022 33.2865ZM56.9348 42.6569L30.9549 16.6711L32.3693 15.257L58.3492 41.2428L56.9348 42.6569ZM30.9928 15.2211C31.6839 14.5985 32.5601 14.2832 33.5132 14.2832V16.2832C33.0167 16.2832 32.628 16.4398 32.3314 16.707L30.9928 15.2211ZM33.5132 14.2832C34.4357 14.2832 35.4032 14.5762 36.3598 15.1187L35.3733 16.8584C34.6424 16.444 34.0128 16.2832 33.5132 16.2832V14.2832ZM36.3607 15.1192L66.7963 32.4171L65.8081 34.1559L35.3724 16.858L36.3607 15.1192ZM67.0095 33.9934L58.3491 42.6568L56.9347 41.2428L65.595 32.5795L67.0095 33.9934Z" fill="black" mask="url(#path-14-outside-2_508_403)"/>
</svg>
